<?xml version="1.0" encoding="utf-8"?>
<!-- Generator: Adobe Illustrator 28.0.0, SVG Export Plug-In . SVG Version: 6.00 Build 0)  -->
<svg version="1.1" id="Capa_1" xmlns="http://www.w3.org/2000/svg" xmlns:xlink="http://www.w3.org/1999/xlink" x="0px" y="0px"
	 viewBox="0 0 400 65.65" style="enable-background:new 0 0 400 65.65;" xml:space="preserve">
<style type="text/css">
	.st0{fill:#FFFFFF;}
</style>
<g>
	<g>
		<path class="st0" d="M37.45,57.6c-1.45,0.65-3.1,1.15-4.96,1.5s-4.03,0.52-6.51,0.52c-3.31,0-6.03-0.58-8.16-1.72
			c-2.13-1.15-3.83-2.85-5.09-5.1s-2.14-5.05-2.64-8.4s-0.74-7.25-0.74-11.7c0-8.6,1.4-15.06,4.19-19.38s7.27-6.48,13.43-6.48
			c2.36,0,4.46,0.23,6.3,0.67c1.84,0.45,3.11,0.88,3.82,1.27l-0.37,3.37c-0.83-0.4-2.05-0.81-3.66-1.24
			c-1.61-0.42-3.31-0.64-5.09-0.64c-2.56,0-4.59,0.64-6.08,1.91s-2.64,2.96-3.44,5.06c-0.81,2.1-1.32,4.49-1.55,7.16
			s-0.34,5.41-0.34,8.21c0,3.1,0.1,6.06,0.31,8.88s0.69,5.32,1.46,7.5c0.77,2.17,1.9,3.91,3.41,5.21s3.57,1.95,6.17,1.95
			c1.82,0,3.57-0.21,5.24-0.64c1.67-0.42,2.99-0.86,3.94-1.31L37.45,57.6z"/>
		<path class="st0" d="M80.01,32.7c0,4.45-0.3,8.36-0.9,11.73s-1.6,6.19-3.01,8.43c-1.41,2.25-3.27,3.94-5.58,5.06
			c-2.32,1.12-5.19,1.69-8.62,1.69c-3.39,0-6.23-0.58-8.5-1.72c-2.27-1.15-4.09-2.85-5.46-5.1c-1.36-2.25-2.34-5.05-2.92-8.4
			c-0.58-3.35-0.87-7.25-0.87-11.7c0-4.25,0.32-8,0.96-11.25s1.67-5.95,3.1-8.1s3.29-3.77,5.58-4.87c2.3-1.1,5.12-1.65,8.47-1.65
			c3.35,0,6.15,0.55,8.41,1.65c2.25,1.1,4.07,2.73,5.46,4.87c1.39,2.15,2.38,4.85,2.98,8.1C79.71,24.71,80.01,28.46,80.01,32.7z
			 M72.81,32.7c0-2.85-0.1-5.62-0.31-8.32s-0.67-5.1-1.4-7.2c-0.72-2.1-1.8-3.79-3.23-5.06s-3.36-1.91-5.8-1.91s-4.37,0.64-5.8,1.91
			s-2.5,2.96-3.23,5.06c-0.72,2.1-1.19,4.5-1.4,7.2c-0.21,2.7-0.31,5.47-0.31,8.32c0,3,0.09,5.92,0.28,8.77s0.64,5.36,1.36,7.54
			c0.72,2.17,1.8,3.92,3.23,5.25c1.43,1.32,3.38,1.99,5.86,1.99s4.44-0.66,5.86-1.99c1.43-1.32,2.5-3.07,3.23-5.25
			c0.72-2.17,1.18-4.69,1.36-7.54C72.72,38.63,72.81,35.7,72.81,32.7z"/>
		<path class="st0" d="M114.69,44.25c0,5.4-1.21,9.31-3.63,11.73c-2.42,2.42-6.19,3.64-11.32,3.64c-1.24,0-2.49-0.06-3.75-0.19
			c-1.26-0.13-2.45-0.29-3.57-0.49s-2.12-0.41-3.01-0.64c-0.89-0.22-1.54-0.46-1.95-0.71l0.37-3.22c0.54,0.25,1.23,0.48,2.08,0.67
			c0.85,0.2,1.77,0.4,2.76,0.6c0.99,0.2,2.03,0.35,3.1,0.45c1.07,0.1,2.09,0.15,3.04,0.15c3.51,0,6.1-0.7,7.75-2.1
			c1.65-1.4,2.48-3.87,2.48-7.42c0-2.95-0.81-5.22-2.42-6.82s-4.12-2.75-7.51-3.45c-2.07-0.45-3.88-1.02-5.43-1.72
			s-2.83-1.64-3.85-2.81c-1.01-1.17-1.78-2.61-2.29-4.31c-0.52-1.7-0.78-3.75-0.78-6.15c0-4.9,1.28-8.56,3.85-10.98
			c2.56-2.42,6.12-3.64,10.67-3.64c1.2,0,2.42,0.06,3.66,0.19c1.24,0.13,2.4,0.29,3.47,0.49c1.07,0.2,2.02,0.41,2.82,0.64
			c0.81,0.23,1.4,0.44,1.77,0.64l-0.37,3.3c-0.46-0.2-1.05-0.4-1.8-0.6c-0.74-0.2-1.59-0.4-2.54-0.6c-0.95-0.2-1.95-0.36-3.01-0.49
			c-1.05-0.12-2.08-0.19-3.07-0.19c-3.56,0-6.1,0.76-7.63,2.29s-2.3,3.86-2.3,7.01c0,2.75,0.81,4.8,2.42,6.15
			c1.61,1.35,4.13,2.4,7.57,3.15c2.07,0.45,3.88,1.02,5.43,1.72c1.55,0.7,2.84,1.65,3.88,2.85c1.03,1.2,1.81,2.67,2.33,4.42
			C114.43,39.55,114.69,41.7,114.69,44.25z"/>
		<path class="st0" d="M166.42,58.72h-6.64V15.91L144.9,58.72h-3.54l-14.95-42.81v42.81h-2.98V7.74h7.38l14.33,42.21l14.58-42.21
			h6.7V58.72z"/>
		<path class="st0" d="M208.79,7.74l-14.08,28.79v22.19h-6.89V36.53L173.81,7.74h7.88l11.85,24.67l11.91-24.67H208.79z"/>
		<path class="st0" d="M248.43,58.72h-8.13l-11.48-22.49l-12.47,22.49h-3.54l14.45-25.42L214.25,7.74h7.82l10.55,20.47l10.92-20.47
			h3.47l-12.9,23.32L248.43,58.72z"/>
	</g>
	<g>
		<path class="st0" d="M301.41,34.35l9.63,15.25c-0.57,0.96-1.42,1.86-2.54,2.68c-1.12,0.83-2.39,1.25-3.82,1.25
			c-1.33,0-2.4-0.26-3.22-0.79c-0.82-0.52-1.46-1.23-1.91-2.13c-0.45-0.89-0.76-1.92-0.91-3.07c-0.15-1.16-0.22-2.39-0.22-3.7
			c0-2.49,0.32-4.53,0.97-6.12C300.04,36.13,300.72,35.01,301.41,34.35z"/>
		<path class="st0" d="M284.93,7.71v0.03h-1.57l-10.92,20.47L261.9,7.74h-7.82l13.03,25.57l-14.46,25.41h3.54l12.47-22.49
			l11.47,22.49h4.8v0.04h102.6V7.71H284.93z M284.93,52.29l-11-21.23l11-19.89V52.29z M315.04,55.62l-2.27-3.53
			c-0.33,0.43-0.77,0.9-1.3,1.4c-0.53,0.51-1.17,0.98-1.93,1.41c-0.75,0.44-1.61,0.8-2.56,1.08c-0.96,0.28-1.99,0.43-3.11,0.43
			c-2.06,0-3.76-0.3-5.09-0.89s-2.39-1.41-3.18-2.48c-0.79-1.07-1.34-2.34-1.66-3.8s-0.48-3.07-0.48-4.81c0-1.57,0.21-3,0.62-4.29
			c0.41-1.28,0.93-2.44,1.56-3.47c0.64-1.02,1.35-1.88,2.14-2.58c0.79-0.7,1.57-1.25,2.36-1.64c-1.42-2.18-2.47-4.15-3.16-5.92
			c-0.68-1.77-1.02-3.63-1.02-5.6c0-1.57,0.15-3,0.46-4.28c0.3-1.29,0.8-2.4,1.5-3.34c0.69-0.94,1.6-1.67,2.72-2.19
			c1.12-0.53,2.51-0.79,4.18-0.79c0.85,0,1.69,0.07,2.52,0.2s1.6,0.28,2.29,0.45c0.7,0.18,1.31,0.38,1.82,0.59
			c0.52,0.22,0.89,0.42,1.14,0.59l-0.18,2.82c-0.25-0.18-0.6-0.36-1.07-0.56c-0.47-0.2-1-0.38-1.59-0.56
			c-0.59-0.17-1.21-0.32-1.86-0.45c-0.66-0.13-1.28-0.2-1.89-0.2c-1,0-1.82,0.17-2.45,0.52c-0.64,0.35-1.15,0.83-1.55,1.44
			c-0.39,0.62-0.66,1.32-0.81,2.13c-0.16,0.81-0.23,1.67-0.23,2.59c0,1.39,0.3,2.84,0.91,4.35c0.6,1.5,1.54,3.26,2.81,5.27
			l8.86,13.81c0.43-1.01,0.8-2.64,1.14-4.91c0.33-2.27,0.5-5.15,0.5-8.64h4.54c0,2.09-0.11,4.05-0.32,5.86
			c-0.21,1.81-0.48,3.46-0.79,4.94c-0.32,1.48-0.68,2.8-1.09,3.96c-0.41,1.15-0.81,2.12-1.21,2.91l5.45,8.18
			C321.76,55.62,315.04,55.62,315.04,55.62z M342.57,55.95c-1.36,0.3-2.95,0.46-4.77,0.46c-2.42,0-4.42-0.51-5.97-1.51
			c-1.56-1-2.81-2.49-3.73-4.45s-1.57-4.41-1.93-7.33s-0.55-6.33-0.55-10.21c0-7.5,1.03-13.14,3.07-16.92
			c2.05-3.77,5.32-5.66,9.84-5.66c1.72,0,3.26,0.2,4.61,0.59c1.34,0.39,2.28,0.76,2.79,1.11l-0.27,2.95
			c-0.61-0.35-1.5-0.71-2.68-1.08s-2.43-0.56-3.73-0.56c-1.88,0-3.36,0.56-4.45,1.67c-1.09,1.11-1.93,2.59-2.52,4.42
			c-0.59,1.83-0.97,3.91-1.14,6.25c-0.16,2.33-0.25,4.72-0.25,7.16c0,2.71,0.08,5.3,0.23,7.76c0.15,2.47,0.51,4.65,1.07,6.55
			c0.56,1.89,1.39,3.41,2.5,4.54c1.1,1.14,2.61,1.71,4.52,1.71c1.33,0,2.61-0.19,3.84-0.56c1.22-0.37,2.18-0.75,2.88-1.15l0.27,2.95
			C345.14,55.21,343.93,55.64,342.57,55.95z M371.76,46.26c-0.38,2.23-1,4.09-1.87,5.6c-0.86,1.5-1.98,2.64-3.36,3.4
			c-1.38,0.76-3.08,1.15-5.11,1.15s-3.72-0.39-5.09-1.15c-1.36-0.76-2.45-1.9-3.27-3.4c-0.82-1.51-1.4-3.37-1.75-5.6
			c-0.35-2.22-0.52-4.82-0.52-7.79c0-2.83,0.2-5.32,0.59-7.46c0.39-2.13,1.02-3.92,1.89-5.36c0.86-1.44,1.98-2.52,3.36-3.24
			c1.38-0.72,3.06-1.08,5.06-1.08s3.68,0.36,5.02,1.08c1.35,0.72,2.44,1.8,3.27,3.24c0.84,1.44,1.44,3.23,1.8,5.36
			c0.36,2.14,0.54,4.63,0.54,7.46C372.32,41.44,372.13,44.04,371.76,46.26z M383.45,55.26c-0.42,0.76-1.16,1.15-2.22,1.15
			s-1.81-0.39-2.23-1.15c-0.42-0.76-0.64-1.82-0.64-3.17c0-1.27,0.22-2.27,0.66-3.01c0.44-0.74,1.18-1.12,2.21-1.12
			s1.76,0.38,2.2,1.12c0.44,0.74,0.66,1.74,0.66,3.01C384.09,53.44,383.88,54.5,383.45,55.26z"/>
		<g>
			<g>
				<path class="st0" d="M367.42,38.41c0,1.96-0.06,3.86-0.16,5.69c-0.11,1.83-0.35,3.46-0.73,4.88c-0.38,1.42-0.96,2.55-1.75,3.4
					c-0.79,0.85-1.86,1.28-3.22,1.28c-1.37,0-2.44-0.43-3.23-1.28s-1.37-1.98-1.75-3.4s-0.62-3.05-0.72-4.88
					c-0.11-1.83-0.16-3.73-0.16-5.69c0-1.83,0.05-3.6,0.16-5.3c0.1-1.71,0.36-3.23,0.77-4.58c0.41-1.36,1-2.44,1.77-3.24
					c0.77-0.81,1.82-1.22,3.16-1.22c1.33,0,2.38,0.41,3.15,1.22c0.78,0.8,1.37,1.87,1.78,3.2c0.4,1.33,0.66,2.86,0.77,4.58
					C367.36,34.8,367.42,36.58,367.42,38.41z"/>
			</g>
		</g>
	</g>
</g>
</svg>
